<?xml version="1.0" standalone="no"?>
<!DOCTYPE svg PUBLIC "-//W3C//DTD SVG 20010904//EN"
 "http://www.w3.org/TR/2001/REC-SVG-20010904/DTD/svg10.dtd">
<svg version="1.0" xmlns="http://www.w3.org/2000/svg"
 width="500.000000pt" height="500.000000pt" viewBox="0 0 500.000000 500.000000"
 preserveAspectRatio="xMidYMid meet">

<g transform="translate(0.000000,500.000000) scale(0.100000,-0.100000)"
fill="#000000" stroke="none">
<path d="M0 2500 l0 -2500 2500 0 2500 0 0 2500 0 2500 -2500 0 -2500 0 0
-2500z m3219 1794 c54 -11 51 -39 -23 -179 l-67 -126 70 -76 c51 -55 84 -104
121 -177 95 -191 103 -264 97 -857 -5 -500 -7 -518 -71 -674 -84 -206 -244
-362 -458 -445 -119 -46 -225 -64 -393 -64 -166 -1 -253 14 -383 65 -40 16
-76 29 -80 29 -4 0 -25 -35 -47 -77 -58 -114 -56 -113 -183 -113 -158 0 -160
5 -69 183 97 191 93 165 41 233 -62 81 -130 222 -157 324 -21 83 -22 98 -22
595 0 566 1 574 68 738 97 237 296 406 567 479 76 20 107 23 280 22 172 0 205
-3 275 -23 44 -13 90 -25 101 -28 19 -4 28 7 64 76 35 67 48 83 74 90 37 11
151 14 195 5z m-2664 -3273 c50 -22 91 -69 105 -119 13 -50 13 -202 -2 -259
-39 -157 -274 -193 -368 -56 -23 34 -25 47 -28 170 -3 120 -1 138 18 178 34
70 93 103 185 104 28 0 68 -7 90 -18z m780 -5 c60 -27 88 -66 89 -121 l1 -40
-57 -3 c-51 -3 -58 -1 -58 16 0 54 -89 83 -130 42 -18 -18 -20 -33 -20 -139 0
-117 1 -120 26 -140 46 -36 96 -22 119 32 13 31 14 32 69 29 55 -4 56 -5 56
-33 0 -143 -230 -210 -341 -100 -20 20 -42 54 -48 76 -14 51 -14 213 0 269 29
115 172 169 294 112z m450 5 c50 -22 91 -69 105 -119 13 -50 13 -202 -2 -259
-39 -157 -274 -193 -368 -56 -23 34 -25 47 -28 170 -3 120 -1 138 18 178 34
70 93 103 185 104 28 0 68 -7 90 -18z m2420 0 c66 -29 113 -97 103 -148 -3
-14 -14 -19 -61 -21 -44 -2 -57 0 -57 11 0 8 -9 26 -21 41 -24 30 -72 35 -107
10 -21 -14 -22 -22 -22 -140 0 -111 2 -126 20 -144 38 -38 101 -21 123 33 14
31 15 32 72 29 l57 -4 -5 -39 c-12 -88 -88 -143 -197 -143 -72 0 -109 15 -153
61 -38 41 -47 80 -47 213 0 132 16 182 69 219 62 44 158 53 226 22z m-2070
-71 c27 -44 53 -80 56 -80 4 0 30 36 58 80 l51 80 60 0 60 0 0 -260 0 -260
-60 0 -59 0 -3 157 -3 157 -35 -57 c-31 -51 -38 -57 -68 -57 -29 0 -37 6 -65
52 l-32 51 -5 -149 -5 -149 -60 0 -60 0 -3 258 -2 257 62 0 63 0 50 -80z m536
-6 l53 -85 33 53 c19 29 42 68 53 86 18 30 22 32 80 32 l60 0 0 -260 0 -260
-60 0 -60 0 0 158 -1 157 -35 -57 c-32 -52 -39 -58 -69 -58 -30 0 -37 6 -69
57 l-36 57 0 -157 0 -158 -62 3 -63 3 -3 245 c-1 134 0 250 3 257 3 9 25 13
64 13 l59 0 53 -86z m729 36 l0 -49 -122 -3 -123 -3 -3 -47 -3 -47 83 -3 83
-3 0 -50 0 -50 -82 -3 -83 -3 0 -49 0 -49 123 -3 122 -3 3 -52 3 -53 -185 0
-186 0 0 260 0 260 185 0 185 0 0 -50z m406 9 c77 -78 66 -182 -28 -252 -15
-11 -13 -21 33 -116 27 -57 49 -105 49 -107 0 -2 -29 -4 -64 -4 l-63 0 -48
105 c-45 98 -51 106 -74 103 -26 -3 -26 -4 -29 -105 l-3 -103 -59 0 -60 0 0
261 0 260 155 -3 155 -3 36 -36z m942 -6 l-3 -48 -122 -3 -123 -3 0 -49 0 -50
80 0 80 0 0 -55 0 -55 -80 0 -80 0 0 -50 0 -49 123 -3 122 -3 0 -50 0 -50
-185 0 -185 0 -3 258 -2 257 190 0 191 0 -3 -47z m-3763 -258 l0 -50 -135 0
-135 0 -3 39 c-6 68 -7 67 140 64 l133 -3 0 -50z"/>
<path d="M2353 3741 c-134 -46 -235 -167 -262 -316 -17 -89 -15 -905 2 -905
14 0 610 1187 602 1200 -24 39 -250 53 -342 21z"/>
<path d="M2562 2859 c-178 -351 -322 -647 -320 -656 4 -22 98 -68 172 -84 79
-17 201 -2 279 34 114 52 203 168 227 296 6 31 10 236 10 479 0 417 -7 539
-34 561 -8 7 -101 -168 -334 -630z"/>
<path d="M409 911 c-22 -17 -24 -29 -27 -116 -2 -52 -1 -107 2 -121 17 -65 96
-87 135 -38 18 23 21 41 21 134 0 93 -3 111 -21 134 -25 32 -75 35 -110 7z"/>
<path d="M1639 911 c-22 -17 -24 -29 -27 -116 -2 -52 -1 -107 2 -121 17 -65
96 -87 135 -38 18 23 21 41 21 134 0 93 -3 111 -21 134 -25 32 -75 35 -110 7z"/>
<path d="M3584 916 c-3 -7 -4 -33 -2 -57 l3 -44 56 0 c32 0 63 6 73 14 24 20
20 67 -6 85 -29 20 -117 22 -124 2z"/>
</g>
</svg>
